<svg width="26" height="26" viewBox="0 0 26 26" fill="none" xmlns="http://www.w3.org/2000/svg">
<circle cx="13" cy="13" r="13" fill="#EE2737" style="fill:#EE2737;fill:color(display-p3 0.9333 0.1529 0.2157);fill-opacity:1;"/>
<path d="M4.91102 17H3.14148V8.54492H4.91102V17ZM8.53516 17H6.8418V8.54492H8.31836L12.209 13.8125H12.3145V8.54492H14.0078V17H12.543L8.64062 11.709H8.53516V17ZM15.9445 8.53906H19.2726C21.7863 8.53906 23.2394 10.0625 23.2394 12.7109C23.2394 15.459 21.8038 17 19.2726 17H15.9445V8.53906ZM17.714 10.0508V15.4883H18.9913C20.5558 15.4883 21.4347 14.5273 21.4347 12.7402C21.4347 11.0293 20.5265 10.0508 18.9913 10.0508H17.714Z" fill="white" style="fill:white;fill-opacity:1;"/>
</svg>
